<svg width="244" height="257" viewBox="0 0 244 257" fill="none" xmlns="http://www.w3.org/2000/svg">
<path d="M20.2398 37.8931C16.6795 35.4283 17.7226 29.911 21.9369 28.916L143.051 0.319601C149.219 -1.13659 155.168 3.43784 155.345 9.77239L157.002 68.9978L89.002 85.4979L20.2398 37.8931Z" fill="#212121"/>
<path d="M164.502 17.5C164.502 14.5 170.502 5.99999 179.002 10.5L230.578 45.3763C231.188 45.7891 232.601 47.4062 233.144 47.9049V47.9049C235.701 50.255 232.382 51.6027 228.997 52.3818L165.502 66.9978L164.502 17.5Z" fill="#1DB954"/>
<path d="M27.5017 190.5C16.85 192.816 7.48519 187.839 4.17501 183.516C3.68641 182.878 3.49035 182.081 3.46846 181.277L0.235364 62.5762C0.100975 57.6422 3.28572 52.4852 7.86492 50.6431C9.93681 49.8097 12.4096 49.2651 15.9118 49.6677C17.2952 49.8268 18.5898 50.4141 19.7283 51.216L71.4056 87.615C73.9836 89.4308 75.5541 92.3561 75.6432 95.5082L78.0017 179L27.5017 190.5Z" fill="#212121"/>
<path d="M220.5 64.4999C232.723 62.6195 236.105 66.4851 239.791 72.3565C240.259 73.1027 240.512 73.9637 240.535 74.8444L243.954 205.744C243.984 206.906 243.837 208.078 243.37 209.142C240.828 214.938 236.146 217.026 230.283 215.407C229.422 215.169 228.629 214.74 227.897 214.228L173.105 175.872C170.522 174.064 168.943 171.145 168.845 167.994L166.002 77.4999L220.5 64.4999Z" fill="#212121"/>
<path d="M87.4953 245.63C87.4996 245.876 87.5139 246.122 87.595 246.355C88.7073 249.55 97.7076 256.481 103.002 256L201.5 233C207.514 231.58 213.684 219.145 205.647 210.182C205.231 209.719 204.741 209.323 204.227 208.972L153.31 174.234C152.158 173.447 150.728 173.179 149.368 173.492L86.5017 188L87.4953 245.63Z" fill="#212121"/>
<path d="M12.5694 205.866C12.1909 205.955 11.8204 206.083 11.4834 206.277C7.87871 208.352 6.69904 212.133 10.9998 215L60.0956 249.796C61.665 250.909 63.5249 251.583 65.4477 251.527C74.3614 251.265 78.2341 247.712 79.3581 241.85C79.4658 241.288 79.4912 240.713 79.4742 240.141L77.9998 190.5L12.5694 205.866Z" fill="#212121"/>
<path d="M84.9998 114C84.9998 104 92.4998 95.5 99.4998 93L157 80L159.422 140.563C159.474 141.842 159.278 143.12 158.848 144.326L157.624 147.752C157.209 148.915 156.687 150.037 156.065 151.103L155.318 152.383C154.116 154.444 152.554 156.274 150.707 157.785L149.489 158.782C148.498 159.592 147.433 160.305 146.306 160.912L143.76 162.283C142.259 163.091 140.662 163.704 139.005 164.107L85.9998 177L84.9998 114Z" fill="#212121"/>
<path d="M12.8552 207.083L76.7958 192.067L78.2247 240.178C78.24 240.691 78.2158 241.169 78.1304 241.615C77.6119 244.319 76.4912 246.362 74.5779 247.786C72.6359 249.231 69.7249 250.151 65.411 250.277C63.8071 250.324 62.2085 249.762 60.8184 248.776L11.7226 213.98L11.708 213.97L11.6932 213.96C9.79919 212.697 9.39069 211.449 9.51615 210.506C9.65439 209.467 10.4983 208.287 12.1071 207.361C12.3087 207.244 12.5564 207.153 12.8552 207.083ZM22.2241 30.1325L143.339 1.53615C148.735 0.261979 153.941 4.26461 154.096 9.80734L155.724 68.0216L89.2524 84.1508L20.9513 36.8654C18.2811 35.0168 19.0634 30.8788 22.2241 30.1325ZM169.318 12.1845C171.545 10.5006 174.63 9.62615 178.359 11.5741L229.878 46.4117C230.048 46.5268 230.451 46.9184 230.984 47.4739C231.103 47.5979 231.228 47.7295 231.354 47.8614C231.71 48.2368 232.069 48.6146 232.298 48.8253C232.708 49.2022 232.784 49.4135 232.798 49.4673C232.781 49.5041 232.721 49.598 232.53 49.7469C231.84 50.2848 230.422 50.7712 228.717 51.1636L166.721 65.4346L165.752 17.4899C165.756 17.0674 166.002 16.2123 166.642 15.1551C167.263 14.129 168.175 13.0489 169.318 12.1845ZM232.804 49.4497C232.804 49.4496 232.804 49.4523 232.802 49.4579C232.803 49.4525 232.804 49.4498 232.804 49.4497ZM4.718 181.243L1.4849 62.5421C1.36383 58.097 4.26762 53.4375 8.33142 51.8028C10.2257 51.0408 12.4895 50.5325 15.769 50.9096C16.8939 51.0389 17.9936 51.5231 19.0085 52.2379L70.6858 88.6369C72.9416 90.2257 74.3158 92.7854 74.3937 95.5435L76.7232 178.009L27.2362 189.279C27.2341 189.279 27.2321 189.279 27.23 189.28C22.1665 190.379 17.4062 189.747 13.5148 188.324C9.59718 186.89 6.64649 184.688 5.16744 182.756C4.88924 182.393 4.73537 181.881 4.718 181.243ZM239.285 74.8771L242.704 205.776C242.732 206.819 242.596 207.795 242.225 208.64C241.046 211.328 239.428 213.037 237.54 213.924C235.65 214.813 233.332 214.952 230.616 214.202C229.934 214.014 229.271 213.664 228.614 213.204L173.822 174.848C171.562 173.266 170.18 170.712 170.094 167.955L167.283 78.4793L220.74 65.7277C226.698 64.8171 230.28 65.3429 232.773 66.6316C235.281 67.9285 236.897 70.0974 238.732 73.021C239.078 73.5717 239.268 74.2134 239.285 74.8771ZM201.213 231.784L102.808 254.762C101.771 254.837 100.456 254.565 98.9753 253.982C97.4748 253.392 95.9006 252.519 94.4325 251.522C92.9652 250.526 91.6341 249.425 90.6145 248.398C89.558 247.333 88.957 246.466 88.7755 245.944C88.7649 245.914 88.7491 245.841 88.7451 245.608L87.769 188.99L149.649 174.71C150.669 174.475 151.741 174.677 152.606 175.267L203.522 210.005C203.984 210.32 204.388 210.651 204.716 211.017C208.399 215.123 208.832 220.005 207.643 224.069C207.046 226.108 206.045 227.916 204.869 229.28C203.681 230.657 202.382 231.508 201.213 231.784ZM86.2498 113.99C86.2546 104.61 93.3171 96.5745 99.8506 94.2022L155.811 81.5504L158.173 140.613C158.218 141.732 158.047 142.85 157.671 143.905L156.447 147.332C156.058 148.422 155.568 149.473 154.985 150.473L154.238 151.753C153.111 153.686 151.647 155.401 149.916 156.817L148.697 157.814C147.769 158.574 146.77 159.243 145.713 159.811L143.168 161.182C141.761 161.94 140.263 162.515 138.71 162.892L87.2248 175.416L86.2498 114C86.2498 113.997 86.2498 113.994 86.2498 113.99Z" stroke="#FFFEFE" stroke-width="2.5"/>
</svg>
